<svg width="48" height="46" viewBox="0 0 48 46" fill="none" xmlns="http://www.w3.org/2000/svg">
<path opacity="0.6" d="M47.3067 43.2753L44.48 26.9268C44.8 25.7515 45.0133 24.5226 45.12 23.2938C45.2267 23.3473 45.3333 23.4007 45.4933 23.4007H45.7067C46.0267 23.4007 46.2933 23.1336 46.2933 22.813V19.7677C46.2933 19.4472 46.0267 19.18 45.7067 19.18H45.4933C45.3333 19.18 45.2267 19.2334 45.12 19.2869C44.6933 14.8525 42.9333 10.8455 40.2667 7.63995C40.3733 7.58653 40.4267 7.58653 40.5333 7.47967L40.6933 7.3194C40.9067 7.10569 40.9067 6.67828 40.6933 6.46458L38.56 4.32753C38.3467 4.11382 37.92 4.11382 37.7067 4.32753L37.5467 4.4878C37.4933 4.54123 37.44 4.64808 37.3867 4.75494C33.76 1.81649 29.12 0 24.1067 0C24.1067 0 23.3067 -5.17474e-08 22.9867 0.0534262C18.2933 0.267131 14.08 1.97677 10.6667 4.75494C10.6133 4.70151 10.6133 4.59466 10.5067 4.54123L10.3467 4.38095C10.1333 4.16725 9.70667 4.16725 9.49333 4.38095L7.36 6.518C7.14667 6.73171 7.14667 7.15912 7.36 7.37282L7.52 7.5331C7.57333 7.58653 7.62667 7.63995 7.68 7.63995C4.96 10.8455 3.25333 14.9059 2.82667 19.2869C2.72 19.2334 2.61333 19.18 2.50667 19.18H2.29333C1.97333 19.18 1.70667 19.4472 1.70667 19.7677V22.813C1.70667 23.1336 1.97333 23.4007 2.29333 23.4007H2.50667C2.61333 23.4007 2.72 23.3473 2.82667 23.2938C2.93333 24.5226 3.14667 25.7515 3.52 26.9268L0.693333 43.2753C0.266667 43.3821 0 43.6492 0 44.0767V45.0918C0 45.5192 0.373333 45.8931 0.8 45.8931H1.6C2.02667 45.8931 2.4 45.5192 2.4 45.0918V44.0767C2.4 43.7027 2.18667 43.4355 1.86667 43.3287L4.32 29.3844C5.06667 31.3078 6.13333 33.0174 7.36 34.6202C7.30667 34.6736 7.25333 34.6736 7.2 34.7271L7.04 34.8873C6.82667 35.101 6.82667 35.5285 7.04 35.7422L9.17333 37.8792C9.38667 38.0929 9.81333 38.0929 10.0267 37.8792L10.1867 37.7189C10.24 37.6655 10.24 37.6121 10.2933 37.6121C14.0267 40.7642 18.7733 42.6341 24 42.6341C24.32 42.6341 24.6933 42.6341 25.0133 42.6341C25.4933 42.6341 26.0267 42.5807 26.5067 42.5273H26.56C31.0933 41.993 35.1467 40.0697 38.2933 37.1847C38.3467 37.2381 38.4 37.3449 38.4533 37.3984L38.6133 37.5587C38.88 37.7724 39.2533 37.7724 39.4667 37.5052L41.4933 35.2613C41.7067 34.9942 41.7067 34.6202 41.44 34.4065L41.28 34.2462C41.2267 34.1928 41.12 34.1394 41.0667 34.1394C42.1333 32.6969 43.04 31.1475 43.68 29.4379L46.1333 43.4355C45.8133 43.5424 45.6 43.8095 45.6 44.1835V45.1986C45.6 45.626 45.9733 46 46.4 46H47.2C47.6267 46 48 45.626 48 45.1986V44.1835C48 43.6492 47.7333 43.3821 47.3067 43.2753ZM23.4667 40.7642C22.9333 40.7642 22.3467 40.7108 21.8133 40.6574V36.0627H23.4667V40.7642ZM26.2933 40.6574C25.8667 40.7108 25.3867 40.7642 24.9067 40.7642C24.8 40.7642 24.7467 40.7642 24.64 40.7642V36.0627H26.24V40.6574H26.2933ZM27.52 40.4437V36.0627C27.52 35.3682 26.9867 34.8339 26.2933 34.8339H24.6933V24.8966H24.96C25.9733 24.8966 26.7733 24.0952 26.7733 23.0801V20.7294C26.7733 19.7143 25.9733 18.9129 24.96 18.9129H23.0933C22.08 18.9129 21.28 19.7143 21.28 20.7294V23.0801C21.28 24.0952 22.08 24.8966 23.0933 24.8966H23.4667V34.8339H21.8133C21.12 34.8339 20.5867 35.3682 20.5867 36.0627V40.4437C11.7867 38.8943 5.01333 31.4681 4.58667 22.2253C4.32 17.043 6.13333 12.0743 9.6 8.22764C13.0667 4.38095 17.8667 2.13705 23.04 1.86992C23.36 1.86992 23.68 1.86992 24 1.86992C34.3467 1.86992 42.88 9.99071 43.4133 20.4088C43.8933 30.2393 36.9067 38.734 27.52 40.4437Z" fill="#ADE8F4"/>
</svg>
