<svg width="50" height="45" viewBox="0 0 50 45" fill="none" xmlns="http://www.w3.org/2000/svg">
<path opacity="0.6" d="M48.8033 6.11432C49.4647 6.11432 50 5.57482 50 4.90635V1.2116C50 0.543131 49.4647 0 48.8033 0H1.1985C0.535272 0 0 0.543131 0 1.2116V4.90453C0 5.54757 0.502833 6.06164 1.13182 6.09797V38.9057C0.502833 38.942 0 39.4561 0 40.0991V43.7902C0 44.4569 0.535272 45 1.1985 45H48.8033C49.4647 45 50 44.4569 50 43.7902V40.0991C50 39.4324 49.4647 38.8911 48.8033 38.8911H48.6591V6.11432H48.8033ZM2.397 2.41776H47.603V3.69656H2.397V2.41776ZM26.0931 38.8911V6.11432H38.7179V38.8929H26.0931V38.8911ZM8.67246 6.11432V38.8929H3.52702V6.11432H8.67246ZM11.0695 6.11432H23.6961V38.8929H11.0695V6.11432ZM47.603 42.5859H2.397V41.3071H47.603V42.5859ZM46.2603 38.8911H41.1149V6.11432H46.2603V38.8911Z" fill="#ADE8F4"/>
</svg>
