<svg width="40" height="46" viewBox="0 0 40 46" fill="none" xmlns="http://www.w3.org/2000/svg">
<path opacity="0.6" d="M17.8438 0V6.53344C7.8675 7.08687 0.59375 11.5 0.59375 17.25C0.629235 18.3533 0.898774 19.4365 1.38451 20.4278C1.87024 21.4191 2.56108 22.2959 3.41125 23C2.56073 23.7038 1.86965 24.5805 1.38388 25.5719C0.898115 26.5632 0.628778 27.6466 0.59375 28.75C0.59375 34.5 7.8675 38.9131 17.8438 39.4666V46H22.1562V39.4666C32.1325 38.9131 39.4062 34.5 39.4062 28.75C39.3712 27.6466 39.1019 26.5632 38.6161 25.5719C38.1304 24.5805 37.4393 23.7038 36.5888 23C37.4389 22.2959 38.1298 21.4191 38.6155 20.4278C39.1012 19.4365 39.3708 18.3533 39.4062 17.25C39.4062 11.5 32.1325 7.08687 22.1562 6.53344V0H17.8438ZM35.0938 28.75C35.0938 31.8047 28.625 35.2188 20 35.2188C11.375 35.2188 4.90625 31.8047 4.90625 28.75C4.90625 27.6503 5.74719 26.5075 7.22781 25.4941C11.2508 27.256 15.609 28.1218 20 28.0312C24.391 28.1218 28.7492 27.256 32.7722 25.4941C34.2528 26.5075 35.0938 27.6503 35.0938 28.75ZM35.0938 17.25C35.0938 20.3047 28.625 23.7188 20 23.7188C11.375 23.7188 4.90625 20.3047 4.90625 17.25C4.90625 14.4541 10.3113 11.3706 17.8438 10.8603V17.25H22.1562V10.8603C29.6887 11.3706 35.0938 14.4541 35.0938 17.25Z" fill="#ADE8F4"/>
</svg>
